<svg width="512" height="512" version="1.1" xmlns="http://www.w3.org/2000/svg" desc="Created with imagetracer.js version 1.2.6" ><path fill="rgb(0,0,0)" stroke="rgb(0,0,0)" stroke-width="1" opacity="0" d="M 0 0 L 512 0 L 512 227.5 L 511 227.5 L 510 206.5 L 505 180.5 Q 502.4 171.6 495.5 167 L 474.5 154 L 458.5 148 L 440.5 144 L 201 143.5 L 205 125.5 L 208 118.5 L 208 113.5 L 206.5 112 L 197.5 112 Q 187.8 114.8 183 122.5 L 176 138.5 L 176 144 L 65.5 144 Q 46.1 149.1 35 162.5 L 23 180.5 L 19 191.5 L 18 198.5 L 10 208.5 L 4 225.5 L 0.5 246 L 0 0 Z " /><path fill="rgb(0,0,0)" stroke="rgb(0,0,0)" stroke-width="1" opacity="0" d="M 75.5 160 L 78 160.5 Q 59.8 171.8 46 187.5 L 33.5 205 L 33 198.5 L 36 188.5 L 48 168 L 61.5 162 L 74.5 161 L 75.5 160 Z " /><path fill="rgb(0,0,0)" stroke="rgb(0,0,0)" stroke-width="1" opacity="0" d="M 201.5 160 L 295.5 160 L 298 162.5 Q 303.2 167 303 176 L 298.5 175 Q 296.8 177.8 290.5 176 L 289.5 175 L 260.5 175 L 259.5 174 L 247.5 174 L 246.5 173 L 225.5 171 L 211.5 167 L 202.5 162 L 201.5 160 Z " /><path fill="rgb(0,0,0)" stroke="rgb(0,0,0)" stroke-width="1" opacity="0" d="M 305.5 160 L 422.5 160 L 423 161.5 L 416 172 L 395.5 173 L 394.5 174 L 380.5 174 L 379.5 175 L 328.5 176 L 326.5 176 L 312 176 L 312 170.5 L 305.5 160 Z " /><path fill="rgb(0,0,0)" stroke="rgb(0,0,0)" stroke-width="1" opacity="0" d="M 161.5 177 L 172.5 177 L 191.5 181 L 198.5 181 L 204.5 183 L 223.5 185 L 231 189.5 L 232 192.5 L 231 193.5 L 230 206.5 L 229 207.5 L 229 212.5 L 226 225.5 L 226 232.5 L 225 233.5 L 225 240.5 L 224 241.5 L 224 286.5 L 225 287.5 L 226 302.5 L 232 335.5 L 228.5 341 L 223.5 343 L 204.5 345 L 198.5 347 L 191.5 347 L 165.5 352 L 161.5 351 L 158 347.5 Q 150.8 329.2 147 307.5 L 146 292.5 L 145 291.5 L 145 266.5 L 144 262.5 L 145 261.5 L 145 236.5 L 146 235.5 L 146 227.5 L 149 210.5 L 157 183.5 L 161.5 177 Z " /><path fill="rgb(0,0,0)" stroke="rgb(0,0,0)" stroke-width="1" opacity="0" d="M 422.5 192 L 425.5 193 L 449.5 193 L 450.5 194 L 452.5 194 L 472.5 194 Q 479.7 195.8 483 201.5 L 489 217.5 L 494 240.5 Q 492.3 246.8 495 248.5 L 495 279.5 L 494 280.5 L 492 298.5 L 488 313.5 L 483 326.5 L 477.5 332 L 472.5 334 L 452.5 334 L 451.5 335 L 449.5 335 L 425.5 335 L 424.5 336 L 421.5 335 Q 415.8 335.8 415 331.5 L 414 325.5 L 415 324.5 L 416 293.5 L 417 292.5 L 417 237.5 L 416 236.5 L 416 217.5 L 415 216.5 Q 416.3 206.2 414 199.5 L 418.5 193 L 422.5 192 Z " /><path fill="rgb(0,0,0)" stroke="rgb(0,0,0)" stroke-width="1" opacity="0" d="M 0.5 282 L 4 302.5 L 10 319.5 L 18 329.5 L 19 336.5 L 25 351.5 L 39.5 370 Q 49.4 379.6 64.5 384 L 176 384 Q 177.4 403.8 190.5 413 Q 195.3 417.7 206.5 416 Q 209.3 414.8 208 409.5 L 205 402.5 L 201 384.5 L 440.5 384 L 458.5 380 L 474.5 374 L 487.5 367 L 500 356.5 Q 504.7 351.7 506 343.5 L 510 321.5 L 511.5 300 L 512 512 L 0 512 L 0.5 282 Z " /><path fill="rgb(0,0,0)" stroke="rgb(0,0,0)" stroke-width="1" opacity="0" d="M 33.5 323 Q 43.5 340.5 58.5 353 L 78 367.5 L 75.5 368 L 74.5 367 L 61.5 366 L 48 360 L 36 339.5 L 33 329.5 L 33.5 323 Z " /><path fill="rgb(0,0,0)" stroke="rgb(0,0,0)" stroke-width="1" opacity="0" d="M 290.5 352 L 303 352 L 303 356.5 Q 300.9 363.9 295.5 368 L 201 367.5 L 211.5 361 L 225.5 357 L 246.5 355 L 247.5 354 L 289.5 353 L 290.5 352 Z " /><path fill="rgb(0,0,0)" stroke="rgb(0,0,0)" stroke-width="1" opacity="0" d="M 312 352 L 326.5 352 L 327.5 353 L 328.5 352 L 343.5 352 L 344.5 353 L 379.5 353 L 380.5 354 L 394.5 354 L 395.5 355 L 416 356 L 423 368 L 305 367.5 L 312 357.5 L 312 352 Z " /><path fill="rgb(50,50,50)" stroke="rgb(50,50,50)" stroke-width="1" opacity="0.6352941176470588" d="M 197.5 112 L 200 112.5 L 197.5 113 L 197.5 112 Z " /><path fill="rgb(50,50,50)" stroke="rgb(50,50,50)" stroke-width="1" opacity="0.6352941176470588" d="M 204.5 112 L 208 113.5 L 207.5 115 L 207 113 Q 203.7 113.7 204.5 112 Z " /><path fill="rgb(50,50,50)" stroke="rgb(50,50,50)" stroke-width="1" opacity="0.6352941176470588" d="M 194.5 113 L 196 113.5 Q 188 116 184 122.5 L 182.5 125 L 183 123.5 L 190.5 115 L 194.5 113 Z " /><path fill="rgb(50,50,50)" stroke="rgb(50,50,50)" stroke-width="1" opacity="0.6352941176470588" d="M 181.5 126 L 181 127.5 L 179.5 131 L 179 129.5 L 181.5 126 Z " /><path fill="rgb(50,50,50)" stroke="rgb(50,50,50)" stroke-width="1" opacity="0.6352941176470588" d="M 204.5 126 L 205 128.5 L 204 128.5 L 204.5 126 Z " /><path fill="rgb(50,50,50)" stroke="rgb(50,50,50)" stroke-width="1" opacity="0.6352941176470588" d="M 203.5 130 L 204 132.5 L 203 132.5 L 203.5 130 Z " /><path fill="rgb(50,50,50)" stroke="rgb(50,50,50)" stroke-width="1" opacity="0.6352941176470588" d="M 202.5 134 L 203 137.5 L 202 137.5 L 202.5 134 Z " /><path fill="rgb(50,50,50)" stroke="rgb(50,50,50)" stroke-width="1" opacity="0.6352941176470588" d="M 176.5 138 L 177 142.5 L 176 142.5 L 176.5 138 Z " /><path fill="rgb(50,50,50)" stroke="rgb(50,50,50)" stroke-width="1" opacity="0.6352941176470588" d="M 201.5 139 L 202 142.5 L 201 142.5 L 201.5 139 Z " /><path fill="rgb(50,50,50)" stroke="rgb(50,50,50)" stroke-width="1" opacity="0.6352941176470588" d="M 65.5 144 L 69 144.5 L 65.5 145 L 65.5 144 Z " /><path fill="rgb(50,50,50)" stroke="rgb(50,50,50)" stroke-width="1" opacity="0.6352941176470588" d="M 433.5 144 L 441 144.5 L 433.5 145 L 433.5 144 Z " /><path fill="rgb(50,50,50)" stroke="rgb(50,50,50)" stroke-width="1" opacity="0.6352941176470588" d="M 61.5 145 L 64 145.5 L 61.5 146 L 61.5 145 Z " /><path fill="rgb(50,50,50)" stroke="rgb(50,50,50)" stroke-width="1" opacity="0.6352941176470588" d="M 442.5 145 L 446 145.5 L 442.5 146 L 442.5 145 Z " /><path fill="rgb(50,50,50)" stroke="rgb(50,50,50)" stroke-width="1" opacity="0.6352941176470588" d="M 58.5 146 L 60 146.5 Q 46.8 151.3 38 160.5 L 33.5 166 L 35 163.5 L 39.5 158 Q 47.4 150.4 58.5 146 Z " /><path fill="rgb(50,50,50)" stroke="rgb(50,50,50)" stroke-width="1" opacity="0.6352941176470588" d="M 448.5 146 L 451 146.5 L 448.5 147 L 448.5 146 Z " /><path fill="rgb(50,50,50)" stroke="rgb(50,50,50)" stroke-width="1" opacity="0.6352941176470588" d="M 452.5 147 L 455 147.5 L 452.5 148 L 452.5 147 Z " /><path fill="rgb(50,50,50)" stroke="rgb(50,50,50)" stroke-width="1" opacity="0.6352941176470588" d="M 456.5 148 L 467 151.5 L 465.5 152 L 456.5 149 L 456.5 148 Z " /><path fill="rgb(50,50,50)" stroke="rgb(50,50,50)" stroke-width="1" opacity="0.6352941176470588" d="M 468.5 152 L 472 153.5 L 470.5 154 L 468.5 152 Z " /><path fill="rgb(50,50,50)" stroke="rgb(50,50,50)" stroke-width="1" opacity="0.6352941176470588" d="M 473.5 154 L 478 156.5 L 476.5 156 Q 472.7 155.8 473.5 154 Z " /><path fill="rgb(50,50,50)" stroke="rgb(50,50,50)" stroke-width="1" opacity="0.6352941176470588" d="M 479.5 157 L 482 158.5 L 480.5 158 L 479.5 157 Z " /><path fill="rgb(50,50,50)" stroke="rgb(50,50,50)" stroke-width="1" opacity="0.6352941176470588" d="M 483.5 159 L 490 163.5 L 487.5 162 Q 483.5 161.5 483.5 159 Z " /><path fill="rgb(50,50,50)" stroke="rgb(50,50,50)" stroke-width="1" opacity="0.6352941176470588" d="M 66.5 160 L 75 160.5 L 66.5 161 L 66.5 160 Z " /><path fill="rgb(50,50,50)" stroke="rgb(50,50,50)" stroke-width="1" opacity="0.6352941176470588" d="M 78.5 160 L 80 160.5 Q 61.7 171.2 48 186.5 L 32.5 208 L 32 199.5 L 33 199.5 L 33.5 205 Q 43.5 187.5 58.5 175 L 78.5 160 Z " /><path fill="rgb(50,50,50)" stroke="rgb(50,50,50)" stroke-width="1" opacity="0.6352941176470588" d="M 200.5 160 Q 206.7 166.3 217 168.5 L 214.5 169 L 202.5 163 L 200.5 160 Z " /><path fill="rgb(50,50,50)" stroke="rgb(50,50,50)" stroke-width="1" opacity="0.6352941176470588" d="M 296.5 160 L 301 165.5 L 298 163.5 L 296.5 160 Z " /><path fill="rgb(50,50,50)" stroke="rgb(50,50,50)" stroke-width="1" opacity="0.6352941176470588" d="M 304.5 160 Q 310.7 164.3 312 173.5 L 311 173.5 L 309 166.5 L 304.5 160 Z " /><path fill="rgb(50,50,50)" stroke="rgb(50,50,50)" stroke-width="1" opacity="0.6352941176470588" d="M 423.5 160 L 424 161.5 L 422 162.5 L 423.5 160 Z " /><path fill="rgb(50,50,50)" stroke="rgb(50,50,50)" stroke-width="1" opacity="0.6352941176470588" d="M 61.5 161 L 65 161.5 Q 54.5 163.3 48 168 L 42.5 176 L 44 173.5 L 48.5 167 L 61.5 161 Z " /><path fill="rgb(50,50,50)" stroke="rgb(50,50,50)" stroke-width="1" opacity="0.6352941176470588" d="M 421.5 164 L 420 166.5 L 416.5 172 L 416 170.5 L 421.5 164 Z " /><path fill="rgb(50,50,50)" stroke="rgb(50,50,50)" stroke-width="1" opacity="0.6352941176470588" d="M 491.5 164 L 500 171.5 L 504 178.5 L 503 178.5 L 496.5 169 L 491.5 164 Z " /><path fill="rgb(50,50,50)" stroke="rgb(50,50,50)" stroke-width="1" opacity="0.6352941176470588" d="M 32.5 167 L 29 171.5 L 23.5 182 L 23 180.5 Q 26.1 172.1 32.5 167 Z " /><path fill="rgb(50,50,50)" stroke="rgb(50,50,50)" stroke-width="1" opacity="0.6352941176470588" d="M 301.5 167 Q 304.7 169.3 304 175.5 L 303 175.5 Q 303.4 169.3 301.5 167 Z " /><path fill="rgb(50,50,50)" stroke="rgb(50,50,50)" stroke-width="1" opacity="0.6352941176470588" d="M 218.5 169 L 225 170.5 L 221.5 171 L 218.5 170 L 218.5 169 Z " /><path fill="rgb(50,50,50)" stroke="rgb(50,50,50)" stroke-width="1" opacity="0.6352941176470588" d="M 226.5 171 L 231 171.5 L 226.5 172 L 226.5 171 Z " /><path fill="rgb(50,50,50)" stroke="rgb(50,50,50)" stroke-width="1" opacity="0.6352941176470588" d="M 232.5 172 L 238 172.5 L 232.5 173 L 232.5 172 Z " /><path fill="rgb(50,50,50)" stroke="rgb(50,50,50)" stroke-width="1" opacity="0.6352941176470588" d="M 406.5 172 L 414 172.5 L 406.5 173 L 406.5 172 Z " /><path fill="rgb(50,50,50)" stroke="rgb(50,50,50)" stroke-width="1" opacity="0.6352941176470588" d="M 239.5 173 L 247 173.5 L 239.5 174 L 239.5 173 Z " /><path fill="rgb(50,50,50)" stroke="rgb(50,50,50)" stroke-width="1" opacity="0.6352941176470588" d="M 395.5 173 L 404 173.5 L 395.5 174 L 395.5 173 Z " /><path fill="rgb(50,50,50)" stroke="rgb(50,50,50)" stroke-width="1" opacity="0.6352941176470588" d="M 250.5 174 L 260 174.5 L 250.5 175 L 250.5 174 Z " /><path fill="rgb(50,50,50)" stroke="rgb(50,50,50)" stroke-width="1" opacity="0.6352941176470588" d="M 380.5 174 L 392 174.5 L 380.5 175 L 380.5 174 Z " /><path fill="rgb(50,50,50)" stroke="rgb(50,50,50)" stroke-width="1" opacity="0.6352941176470588" d="M 265.5 175 L 290 175.5 L 265.5 176 L 265.5 175 Z " /><path fill="rgb(50,50,50)" stroke="rgb(50,50,50)" stroke-width="1" opacity="0.6352941176470588" d="M 344.5 175 L 374 175.5 L 344.5 176 L 344.5 175 Z " /><path fill="rgb(50,50,50)" stroke="rgb(50,50,50)" stroke-width="1" opacity="0.6352941176470588" d="M 162.5 176 L 171 176.5 L 162.5 177 L 162.5 176 Z " /><path fill="rgb(50,50,50)" stroke="rgb(50,50,50)" stroke-width="1" opacity="0.6352941176470588" d="M 41.5 177 L 41 178.5 L 36.5 188 L 36 186.5 L 41.5 177 Z " /><path fill="rgb(50,50,50)" stroke="rgb(50,50,50)" stroke-width="1" opacity="0.6352941176470588" d="M 160.5 177 L 159 179.5 L 157.5 183 L 157 181.5 L 160.5 177 Z " /><path fill="rgb(50,50,50)" stroke="rgb(50,50,50)" stroke-width="1" opacity="0.6352941176470588" d="M 173.5 177 L 177 177.5 L 173.5 178 L 173.5 177 Z " /><path fill="rgb(50,50,50)" stroke="rgb(50,50,50)" stroke-width="1" opacity="0.6352941176470588" d="M 179.5 178 L 184 178.5 L 179.5 179 L 179.5 178 Z " /><path fill="rgb(50,50,50)" stroke="rgb(50,50,50)" stroke-width="1" opacity="0.6352941176470588" d="M 185.5 179 L 190 179.5 L 185.5 180 L 185.5 179 Z " /><path fill="rgb(50,50,50)" stroke="rgb(50,50,50)" stroke-width="1" opacity="0.6352941176470588" d="M 191.5 180 L 197 180.5 L 191.5 181 L 191.5 180 Z " /><path fill="rgb(50,50,50)" stroke="rgb(50,50,50)" stroke-width="1" opacity="0.6352941176470588" d="M 504.5 180 L 505 182.5 L 504 182.5 L 504.5 180 Z " /><path fill="rgb(50,50,50)" stroke="rgb(50,50,50)" stroke-width="1" opacity="0.6352941176470588" d="M 199.5 181 L 203 181.5 L 199.5 182 L 199.5 181 Z " /><path fill="rgb(50,50,50)" stroke="rgb(50,50,50)" stroke-width="1" opacity="0.6352941176470588" d="M 204.5 182 L 209 182.5 L 204.5 183 L 204.5 182 Z " /><path fill="rgb(50,50,50)" stroke="rgb(50,50,50)" stroke-width="1" opacity="0.6352941176470588" d="M 22.5 183 L 23 184.5 L 19.5 194 L 19 191.5 L 22.5 183 Z " /><path fill="rgb(50,50,50)" stroke="rgb(50,50,50)" stroke-width="1" opacity="0.6352941176470588" d="M 211.5 183 L 216 183.5 L 211.5 184 L 211.5 183 Z " /><path fill="rgb(50,50,50)" stroke="rgb(50,50,50)" stroke-width="1" opacity="0.6352941176470588" d="M 156.5 184 L 157 185.5 L 152.5 198 L 152 195.5 L 156.5 184 Z " /><path fill="rgb(50,50,50)" stroke="rgb(50,50,50)" stroke-width="1" opacity="0.6352941176470588" d="M 217.5 184 L 223 184.5 L 217.5 185 L 217.5 184 Z " /><path fill="rgb(50,50,50)" stroke="rgb(50,50,50)" stroke-width="1" opacity="0.6352941176470588" d="M 505.5 184 L 506 187.5 L 505 187.5 L 505.5 184 Z " /><path fill="rgb(50,50,50)" stroke="rgb(50,50,50)" stroke-width="1" opacity="0.6352941176470588" d="M 224.5 185 Q 229.3 185.3 231 188.5 L 228.5 187 L 224.5 186 L 224.5 185 Z " /><path fill="rgb(50,50,50)" stroke="rgb(50,50,50)" stroke-width="1" opacity="0.6352941176470588" d="M 506.5 189 L 507 192.5 L 506 192.5 L 506.5 189 Z " /><path fill="rgb(50,50,50)" stroke="rgb(50,50,50)" stroke-width="1" opacity="0.6352941176470588" d="M 419.5 192 L 422 192.5 L 419.5 193 L 419.5 192 Z " /><path fill="rgb(50,50,50)" stroke="rgb(50,50,50)" stroke-width="1" opacity="0.6352941176470588" d="M 425.5 192 L 445 192.5 L 425.5 193 L 425.5 192 Z " /><path fill="rgb(50,50,50)" stroke="rgb(50,50,50)" stroke-width="1" opacity="0.6352941176470588" d="M 231.5 193 L 232 198.5 L 231 198.5 L 231.5 193 Z " /><path fill="rgb(50,50,50)" stroke="rgb(50,50,50)" stroke-width="1" opacity="0.6352941176470588" d="M 417.5 193 L 415 196.5 L 414.5 199 L 414 196.5 L 417.5 193 Z " /><path fill="rgb(50,50,50)" stroke="rgb(50,50,50)" stroke-width="1" opacity="0.6352941176470588" d="M 452.5 193 L 471 193.5 L 452.5 194 L 452.5 193 Z " /><path fill="rgb(50,50,50)" stroke="rgb(50,50,50)" stroke-width="1" opacity="0.6352941176470588" d="M 507.5 194 L 508 197.5 L 507 197.5 L 507.5 194 Z " /><path fill="rgb(50,50,50)" stroke="rgb(50,50,50)" stroke-width="1" opacity="0.6352941176470588" d="M 18.5 195 L 19 197.5 L 18 197.5 L 18.5 195 Z " /><path fill="rgb(50,50,50)" stroke="rgb(50,50,50)" stroke-width="1" opacity="0.6352941176470588" d="M 33.5 195 L 34 197.5 L 33 197.5 L 33.5 195 Z " /><path fill="rgb(50,50,50)" stroke="rgb(50,50,50)" stroke-width="1" opacity="0.6352941176470588" d="M 476.5 195 L 484 201.5 L 485 204.5 L 484 204.5 Q 482.6 198.4 477.5 196 L 476.5 195 Z " /><path fill="rgb(50,50,50)" stroke="rgb(50,50,50)" stroke-width="1" opacity="0.6352941176470588" d="M 17.5 199 L 14 203.5 Q 7.6 214.1 4.5 228 L 4 225.5 L 11 206.5 L 17.5 199 Z " /><path fill="rgb(50,50,50)" stroke="rgb(50,50,50)" stroke-width="1" opacity="0.6352941176470588" d="M 151.5 199 L 152 201.5 L 149.5 210 L 149 206.5 L 151.5 199 Z " /><path fill="rgb(50,50,50)" stroke="rgb(50,50,50)" stroke-width="1" opacity="0.6352941176470588" d="M 230.5 200 L 231 205.5 L 230 205.5 L 230.5 200 Z " /><path fill="rgb(50,50,50)" stroke="rgb(50,50,50)" stroke-width="1" opacity="0.6352941176470588" d="M 508.5 200 L 509 204.5 L 508 204.5 L 508.5 200 Z " /><path fill="rgb(50,50,50)" stroke="rgb(50,50,50)" stroke-width="1" opacity="0.6352941176470588" d="M 414.5 203 L 415 213.5 L 414 213.5 L 414.5 203 Z " /><path fill="rgb(50,50,50)" stroke="rgb(50,50,50)" stroke-width="1" opacity="0.6352941176470588" d="M 509.5 206 L 510 212.5 L 509 212.5 L 509.5 206 Z " /><path fill="rgb(50,50,50)" stroke="rgb(50,50,50)" stroke-width="1" opacity="0.6352941176470588" d="M 229.5 207 L 230 211.5 L 229 211.5 L 229.5 207 Z " /><path fill="rgb(50,50,50)" stroke="rgb(50,50,50)" stroke-width="1" opacity="0.6352941176470588" d="M 148.5 211 L 149 214.5 L 147.5 220 L 147 215.5 L 148.5 211 Z " /><path fill="rgb(50,50,50)" stroke="rgb(50,50,50)" stroke-width="1" opacity="0.6352941176470588" d="M 228.5 213 L 229 217.5 L 228 217.5 L 228.5 213 Z " /><path fill="rgb(50,50,50)" stroke="rgb(50,50,50)" stroke-width="1" opacity="0.6352941176470588" d="M 510.5 215 L 511 223.5 L 510 223.5 L 510.5 215 Z " /><path fill="rgb(50,50,50)" stroke="rgb(50,50,50)" stroke-width="1" opacity="0.6352941176470588" d="M 415.5 217 L 416 230.5 L 415 230.5 L 415.5 217 Z " /><path fill="rgb(50,50,50)" stroke="rgb(50,50,50)" stroke-width="1" opacity="0.6352941176470588" d="M 489.5 218 L 490 220.5 L 489 220.5 L 489.5 218 Z " /><path fill="rgb(50,50,50)" stroke="rgb(50,50,50)" stroke-width="1" opacity="0.6352941176470588" d="M 227.5 219 L 228 223.5 L 227 223.5 L 227.5 219 Z " /><path fill="rgb(50,50,50)" stroke="rgb(50,50,50)" stroke-width="1" opacity="0.6352941176470588" d="M 146.5 222 L 147 226.5 L 146 226.5 L 146.5 222 Z " /><path fill="rgb(50,50,50)" stroke="rgb(50,50,50)" stroke-width="1" opacity="0.6352941176470588" d="M 490.5 222 L 491 224.5 L 490 224.5 L 490.5 222 Z " /><path fill="rgb(50,50,50)" stroke="rgb(50,50,50)" stroke-width="1" opacity="0.6352941176470588" d="M 226.5 225 L 227 230.5 L 226 230.5 L 226.5 225 Z " /><path fill="rgb(50,50,50)" stroke="rgb(50,50,50)" stroke-width="1" opacity="0.6352941176470588" d="M 491.5 226 L 492 228.5 L 491 228.5 L 491.5 226 Z " /><path fill="rgb(50,50,50)" stroke="rgb(50,50,50)" stroke-width="1" opacity="0.6352941176470588" d="M 511.5 228 L 512 246.5 L 511 246.5 L 511.5 228 Z " /><path fill="rgb(50,50,50)" stroke="rgb(50,50,50)" stroke-width="1" opacity="0.6352941176470588" d="M 3.5 229 L 4 232.5 L 3 232.5 L 3.5 229 Z " /><path fill="rgb(50,50,50)" stroke="rgb(50,50,50)" stroke-width="1" opacity="0.6352941176470588" d="M 145.5 229 L 146 235.5 L 145 235.5 L 145.5 229 Z " /><path fill="rgb(50,50,50)" stroke="rgb(50,50,50)" stroke-width="1" opacity="0.6352941176470588" d="M 492.5 230 L 493 233.5 L 492 233.5 L 492.5 230 Z " /><path fill="rgb(50,50,50)" stroke="rgb(50,50,50)" stroke-width="1" opacity="0.6352941176470588" d="M 225.5 233 L 226 238.5 L 225 238.5 L 225.5 233 Z " /><path fill="rgb(50,50,50)" stroke="rgb(50,50,50)" stroke-width="1" opacity="0.6352941176470588" d="M 2.5 234 L 3 237.5 L 2 237.5 L 2.5 234 Z " /><path fill="rgb(50,50,50)" stroke="rgb(50,50,50)" stroke-width="1" opacity="0.6352941176470588" d="M 493.5 235 L 494 239.5 L 493 239.5 L 493.5 235 Z " /><path fill="rgb(50,50,50)" stroke="rgb(50,50,50)" stroke-width="1" opacity="0.6352941176470588" d="M 416.5 237 L 417 292.5 L 416 292.5 L 416.5 237 Z " /><path fill="rgb(50,50,50)" stroke="rgb(50,50,50)" stroke-width="1" opacity="0.6352941176470588" d="M 1.5 239 L 2 243.5 L 1 243.5 L 1.5 239 Z " /><path fill="rgb(50,50,50)" stroke="rgb(50,50,50)" stroke-width="1" opacity="0.6352941176470588" d="M 144.5 240 L 145 261.5 L 144 261.5 L 144.5 240 Z " /><path fill="rgb(50,50,50)" stroke="rgb(50,50,50)" stroke-width="1" opacity="0.6352941176470588" d="M 224.5 241 L 225 253.5 L 224 253.5 L 224.5 241 Z " /><path fill="rgb(50,50,50)" stroke="rgb(50,50,50)" stroke-width="1" opacity="0.6352941176470588" d="M 494.5 241 L 495 247.5 L 494 247.5 L 494.5 241 Z " /><path fill="rgb(50,50,50)" stroke="rgb(50,50,50)" stroke-width="1" opacity="0.6352941176470588" d="M 0.5 246 L 1 255.5 L 0 255.5 L 0.5 246 Z " /><path fill="rgb(50,50,50)" stroke="rgb(50,50,50)" stroke-width="1" opacity="0.6352941176470588" d="M 495.5 250 L 496 276.5 L 495 276.5 L 495.5 250 Z " /><path fill="rgb(50,50,50)" stroke="rgb(50,50,50)" stroke-width="1" opacity="0.6352941176470588" d="M 144.5 266 L 145 287.5 L 144 287.5 L 144.5 266 Z " /><path fill="rgb(50,50,50)" stroke="rgb(50,50,50)" stroke-width="1" opacity="0.6352941176470588" d="M 0.5 272 L 1 281.5 L 0 281.5 L 0.5 272 Z " /><path fill="rgb(50,50,50)" stroke="rgb(50,50,50)" stroke-width="1" opacity="0.6352941176470588" d="M 224.5 274 L 225 286.5 L 224 286.5 L 224.5 274 Z " /><path fill="rgb(50,50,50)" stroke="rgb(50,50,50)" stroke-width="1" opacity="0.6352941176470588" d="M 494.5 280 L 495 285.5 L 494 285.5 L 494.5 280 Z " /><path fill="rgb(50,50,50)" stroke="rgb(50,50,50)" stroke-width="1" opacity="0.6352941176470588" d="M 511.5 281 L 512 299.5 L 511 299.5 L 511.5 281 Z " /><path fill="rgb(50,50,50)" stroke="rgb(50,50,50)" stroke-width="1" opacity="0.6352941176470588" d="M 1.5 284 L 2 288.5 L 1 288.5 L 1.5 284 Z " /><path fill="rgb(50,50,50)" stroke="rgb(50,50,50)" stroke-width="1" opacity="0.6352941176470588" d="M 493.5 288 L 494 291.5 L 493 291.5 L 493.5 288 Z " /><path fill="rgb(50,50,50)" stroke="rgb(50,50,50)" stroke-width="1" opacity="0.6352941176470588" d="M 225.5 289 L 226 294.5 L 225 294.5 L 225.5 289 Z " /><path fill="rgb(50,50,50)" stroke="rgb(50,50,50)" stroke-width="1" opacity="0.6352941176470588" d="M 2.5 290 L 3 293.5 L 2 293.5 L 2.5 290 Z " /><path fill="rgb(50,50,50)" stroke="rgb(50,50,50)" stroke-width="1" opacity="0.6352941176470588" d="M 145.5 292 L 146 298.5 L 145 298.5 L 145.5 292 Z " /><path fill="rgb(50,50,50)" stroke="rgb(50,50,50)" stroke-width="1" opacity="0.6352941176470588" d="M 492.5 294 L 493 296.5 L 492 296.5 L 492.5 294 Z " /><path fill="rgb(50,50,50)" stroke="rgb(50,50,50)" stroke-width="1" opacity="0.6352941176470588" d="M 3.5 295 L 4 298.5 L 3 298.5 L 3.5 295 Z " /><path fill="rgb(50,50,50)" stroke="rgb(50,50,50)" stroke-width="1" opacity="0.6352941176470588" d="M 226.5 297 L 227 302.5 L 226 302.5 L 226.5 297 Z " /><path fill="rgb(50,50,50)" stroke="rgb(50,50,50)" stroke-width="1" opacity="0.6352941176470588" d="M 415.5 298 L 416 311.5 L 415 311.5 L 415.5 298 Z " /><path fill="rgb(50,50,50)" stroke="rgb(50,50,50)" stroke-width="1" opacity="0.6352941176470588" d="M 491.5 299 L 492 301.5 L 491 301.5 L 491.5 299 Z " /><path fill="rgb(50,50,50)" stroke="rgb(50,50,50)" stroke-width="1" opacity="0.6352941176470588" d="M 4.5 300 L 11 319.5 L 18 328.5 L 13 324.5 Q 6.2 313.9 4.5 300 Z " /><path fill="rgb(50,50,50)" stroke="rgb(50,50,50)" stroke-width="1" opacity="0.6352941176470588" d="M 146.5 301 L 147 305.5 L 146 305.5 L 146.5 301 Z " /><path fill="rgb(50,50,50)" stroke="rgb(50,50,50)" stroke-width="1" opacity="0.6352941176470588" d="M 490.5 303 L 491 305.5 L 490 305.5 L 490.5 303 Z " /><path fill="rgb(50,50,50)" stroke="rgb(50,50,50)" stroke-width="1" opacity="0.6352941176470588" d="M 227.5 304 L 228 308.5 L 227 308.5 L 227.5 304 Z " /><path fill="rgb(50,50,50)" stroke="rgb(50,50,50)" stroke-width="1" opacity="0.6352941176470588" d="M 510.5 304 L 511 312.5 L 510 312.5 L 510.5 304 Z " /><path fill="rgb(50,50,50)" stroke="rgb(50,50,50)" stroke-width="1" opacity="0.6352941176470588" d="M 489.5 307 L 490 309.5 L 488.5 313 L 488 310.5 L 489.5 307 Z " /><path fill="rgb(50,50,50)" stroke="rgb(50,50,50)" stroke-width="1" opacity="0.6352941176470588" d="M 147.5 308 L 148 311.5 L 147 311.5 L 147.5 308 Z " /><path fill="rgb(50,50,50)" stroke="rgb(50,50,50)" stroke-width="1" opacity="0.6352941176470588" d="M 228.5 310 L 229 314.5 L 228 314.5 L 228.5 310 Z " /><path fill="rgb(50,50,50)" stroke="rgb(50,50,50)" stroke-width="1" opacity="0.6352941176470588" d="M 148.5 314 L 149 316.5 L 148 316.5 L 148.5 314 Z " /><path fill="rgb(50,50,50)" stroke="rgb(50,50,50)" stroke-width="1" opacity="0.6352941176470588" d="M 414.5 315 L 415 324.5 L 414 324.5 L 414.5 315 Z " /><path fill="rgb(50,50,50)" stroke="rgb(50,50,50)" stroke-width="1" opacity="0.6352941176470588" d="M 509.5 315 L 510 321.5 L 509 321.5 L 509.5 315 Z " /><path fill="rgb(50,50,50)" stroke="rgb(50,50,50)" stroke-width="1" opacity="0.6352941176470588" d="M 229.5 316 L 230 320.5 L 229 320.5 L 229.5 316 Z " /><path fill="rgb(50,50,50)" stroke="rgb(50,50,50)" stroke-width="1" opacity="0.6352941176470588" d="M 149.5 318 L 152 328.5 L 151 328.5 L 149.5 318 Z " /><path fill="rgb(50,50,50)" stroke="rgb(50,50,50)" stroke-width="1" opacity="0.6352941176470588" d="M 32.5 320 Q 42.1 337.4 56.5 350 L 64 356.5 L 59.5 353 L 47 341.5 L 33.5 323 L 32.5 329 L 32.5 320 Z " /><path fill="rgb(50,50,50)" stroke="rgb(50,50,50)" stroke-width="1" opacity="0.6352941176470588" d="M 485.5 320 L 486 321.5 Q 484.2 328.7 478.5 332 L 483 326.5 L 485.5 320 Z " /><path fill="rgb(50,50,50)" stroke="rgb(50,50,50)" stroke-width="1" opacity="0.6352941176470588" d="M 230.5 322 L 231 327.5 L 230 327.5 L 230.5 322 Z " /><path fill="rgb(50,50,50)" stroke="rgb(50,50,50)" stroke-width="1" opacity="0.6352941176470588" d="M 508.5 323 L 509 327.5 L 508 327.5 L 508.5 323 Z " /><path fill="rgb(50,50,50)" stroke="rgb(50,50,50)" stroke-width="1" opacity="0.6352941176470588" d="M 231.5 329 L 232 334.5 L 231 334.5 L 231.5 329 Z " /><path fill="rgb(50,50,50)" stroke="rgb(50,50,50)" stroke-width="1" opacity="0.6352941176470588" d="M 414.5 329 L 418 334.5 L 414 331.5 L 414.5 329 Z " /><path fill="rgb(50,50,50)" stroke="rgb(50,50,50)" stroke-width="1" opacity="0.6352941176470588" d="M 18.5 330 L 19 332.5 L 18 332.5 L 18.5 330 Z " /><path fill="rgb(50,50,50)" stroke="rgb(50,50,50)" stroke-width="1" opacity="0.6352941176470588" d="M 33.5 330 L 34 332.5 L 33 332.5 L 33.5 330 Z " /><path fill="rgb(50,50,50)" stroke="rgb(50,50,50)" stroke-width="1" opacity="0.6352941176470588" d="M 152.5 330 L 157 343.5 L 156 343.5 L 152 332.5 L 152.5 330 Z " /><path fill="rgb(50,50,50)" stroke="rgb(50,50,50)" stroke-width="1" opacity="0.6352941176470588" d="M 507.5 330 L 508 333.5 L 507 333.5 L 507.5 330 Z " /><path fill="rgb(50,50,50)" stroke="rgb(50,50,50)" stroke-width="1" opacity="0.6352941176470588" d="M 19.5 334 L 23 344.5 L 22 344.5 L 19 336.5 L 19.5 334 Z " /><path fill="rgb(50,50,50)" stroke="rgb(50,50,50)" stroke-width="1" opacity="0.6352941176470588" d="M 452.5 334 L 471 334.5 L 452.5 335 L 452.5 334 Z " /><path fill="rgb(50,50,50)" stroke="rgb(50,50,50)" stroke-width="1" opacity="0.6352941176470588" d="M 419.5 335 L 422 335.5 L 419.5 336 L 419.5 335 Z " /><path fill="rgb(50,50,50)" stroke="rgb(50,50,50)" stroke-width="1" opacity="0.6352941176470588" d="M 425.5 335 L 445 335.5 L 425.5 336 L 425.5 335 Z " /><path fill="rgb(50,50,50)" stroke="rgb(50,50,50)" stroke-width="1" opacity="0.6352941176470588" d="M 506.5 335 L 507 338.5 L 506 338.5 L 506.5 335 Z " /><path fill="rgb(50,50,50)" stroke="rgb(50,50,50)" stroke-width="1" opacity="0.6352941176470588" d="M 230.5 339 L 228.5 342 L 224.5 343 L 224.5 342 L 230.5 339 Z " /><path fill="rgb(50,50,50)" stroke="rgb(50,50,50)" stroke-width="1" opacity="0.6352941176470588" d="M 36.5 340 L 42 350.5 L 40 349.5 L 36 341.5 L 36.5 340 Z " /><path fill="rgb(50,50,50)" stroke="rgb(50,50,50)" stroke-width="1" opacity="0.6352941176470588" d="M 505.5 340 L 506 343.5 L 504.5 348 L 504 344.5 L 505.5 340 Z " /><path fill="rgb(50,50,50)" stroke="rgb(50,50,50)" stroke-width="1" opacity="0.6352941176470588" d="M 217.5 343 L 223 343.5 L 217.5 344 L 217.5 343 Z " /><path fill="rgb(50,50,50)" stroke="rgb(50,50,50)" stroke-width="1" opacity="0.6352941176470588" d="M 211.5 344 L 216 344.5 L 211.5 345 L 211.5 344 Z " /><path fill="rgb(50,50,50)" stroke="rgb(50,50,50)" stroke-width="1" opacity="0.6352941176470588" d="M 204.5 345 L 209 345.5 L 204.5 346 L 204.5 345 Z " /><path fill="rgb(50,50,50)" stroke="rgb(50,50,50)" stroke-width="1" opacity="0.6352941176470588" d="M 23.5 346 L 27 352.5 L 25 351.5 L 23.5 346 Z " /><path fill="rgb(50,50,50)" stroke="rgb(50,50,50)" stroke-width="1" opacity="0.6352941176470588" d="M 199.5 346 L 203 346.5 L 199.5 347 L 199.5 346 Z " /><path fill="rgb(50,50,50)" stroke="rgb(50,50,50)" stroke-width="1" opacity="0.6352941176470588" d="M 191.5 347 L 197 347.5 L 191.5 348 L 191.5 347 Z " /><path fill="rgb(50,50,50)" stroke="rgb(50,50,50)" stroke-width="1" opacity="0.6352941176470588" d="M 158.5 348 L 160.5 351 L 158.5 348 Z " /><path fill="rgb(50,50,50)" stroke="rgb(50,50,50)" stroke-width="1" opacity="0.6352941176470588" d="M 185.5 348 L 190 348.5 L 185.5 349 L 185.5 348 Z " /><path fill="rgb(50,50,50)" stroke="rgb(50,50,50)" stroke-width="1" opacity="0.6352941176470588" d="M 179.5 349 L 184 349.5 L 179.5 350 L 179.5 349 Z " /><path fill="rgb(50,50,50)" stroke="rgb(50,50,50)" stroke-width="1" opacity="0.6352941176470588" d="M 503.5 349 L 504 350.5 L 495.5 361 L 483.5 369 L 484.5 367 L 499 356.5 L 503.5 349 Z " /><path fill="rgb(50,50,50)" stroke="rgb(50,50,50)" stroke-width="1" opacity="0.6352941176470588" d="M 173.5 350 L 177 350.5 L 173.5 351 L 173.5 350 Z " /><path fill="rgb(50,50,50)" stroke="rgb(50,50,50)" stroke-width="1" opacity="0.6352941176470588" d="M 162.5 351 L 165 351.5 L 162.5 352 L 162.5 351 Z " /><path fill="rgb(50,50,50)" stroke="rgb(50,50,50)" stroke-width="1" opacity="0.6352941176470588" d="M 166.5 351 L 171 351.5 L 166.5 352 L 166.5 351 Z " /><path fill="rgb(50,50,50)" stroke="rgb(50,50,50)" stroke-width="1" opacity="0.6352941176470588" d="M 42.5 352 L 48 360 Q 54.5 364.8 65 366.5 L 61.5 367 Q 52.6 364.9 47 359.5 L 42.5 352 Z " /><path fill="rgb(50,50,50)" stroke="rgb(50,50,50)" stroke-width="1" opacity="0.6352941176470588" d="M 265.5 352 L 290 352.5 L 265.5 353 L 265.5 352 Z " /><path fill="rgb(50,50,50)" stroke="rgb(50,50,50)" stroke-width="1" opacity="0.6352941176470588" d="M 303.5 352 L 304 356.5 L 301.5 361 L 302 359.5 L 303.5 352 Z " /><path fill="rgb(50,50,50)" stroke="rgb(50,50,50)" stroke-width="1" opacity="0.6352941176470588" d="M 344.5 352 L 374 352.5 L 344.5 353 L 344.5 352 Z " /><path fill="rgb(50,50,50)" stroke="rgb(50,50,50)" stroke-width="1" opacity="0.6352941176470588" d="M 250.5 353 L 260 353.5 L 250.5 354 L 250.5 353 Z " /><path fill="rgb(50,50,50)" stroke="rgb(50,50,50)" stroke-width="1" opacity="0.6352941176470588" d="M 380.5 353 L 392 353.5 L 380.5 354 L 380.5 353 Z " /><path fill="rgb(50,50,50)" stroke="rgb(50,50,50)" stroke-width="1" opacity="0.6352941176470588" d="M 27.5 354 L 39.5 369 Q 47.9 377.1 60 381.5 L 58.5 382 Q 44.2 376.3 35 365.5 L 28 356.5 L 27.5 354 Z " /><path fill="rgb(50,50,50)" stroke="rgb(50,50,50)" stroke-width="1" opacity="0.6352941176470588" d="M 239.5 354 L 247 354.5 L 239.5 355 L 239.5 354 Z " /><path fill="rgb(50,50,50)" stroke="rgb(50,50,50)" stroke-width="1" opacity="0.6352941176470588" d="M 311.5 354 L 312 357.5 L 304.5 368 L 306 365.5 Q 311 362 311.5 354 Z " /><path fill="rgb(50,50,50)" stroke="rgb(50,50,50)" stroke-width="1" opacity="0.6352941176470588" d="M 395.5 354 L 404 354.5 L 395.5 355 L 395.5 354 Z " /><path fill="rgb(50,50,50)" stroke="rgb(50,50,50)" stroke-width="1" opacity="0.6352941176470588" d="M 232.5 355 L 238 355.5 L 232.5 356 L 232.5 355 Z " /><path fill="rgb(50,50,50)" stroke="rgb(50,50,50)" stroke-width="1" opacity="0.6352941176470588" d="M 406.5 355 L 414 355.5 L 406.5 356 L 406.5 355 Z " /><path fill="rgb(50,50,50)" stroke="rgb(50,50,50)" stroke-width="1" opacity="0.6352941176470588" d="M 226.5 356 L 231 356.5 L 226.5 357 L 226.5 356 Z " /><path fill="rgb(50,50,50)" stroke="rgb(50,50,50)" stroke-width="1" opacity="0.6352941176470588" d="M 416.5 356 L 422 363.5 L 419 361.5 L 416 357.5 L 416.5 356 Z " /><path fill="rgb(50,50,50)" stroke="rgb(50,50,50)" stroke-width="1" opacity="0.6352941176470588" d="M 65.5 357 L 72 362.5 L 69.5 361 L 65.5 357 Z " /><path fill="rgb(50,50,50)" stroke="rgb(50,50,50)" stroke-width="1" opacity="0.6352941176470588" d="M 221.5 357 L 225 357.5 Q 209.5 359.5 200.5 368 L 202.5 365 Q 210.3 359.3 221.5 357 Z " /><path fill="rgb(50,50,50)" stroke="rgb(50,50,50)" stroke-width="1" opacity="0.6352941176470588" d="M 300.5 362 L 299 364.5 L 296.5 368 L 298 365.5 L 300.5 362 Z " /><path fill="rgb(50,50,50)" stroke="rgb(50,50,50)" stroke-width="1" opacity="0.6352941176470588" d="M 73.5 363 L 80 367.5 L 78.5 368 L 73.5 363 Z " /><path fill="rgb(50,50,50)" stroke="rgb(50,50,50)" stroke-width="1" opacity="0.6352941176470588" d="M 422.5 365 L 424 367.5 L 423 367.5 L 422.5 365 Z " /><path fill="rgb(50,50,50)" stroke="rgb(50,50,50)" stroke-width="1" opacity="0.6352941176470588" d="M 66.5 367 L 75 367.5 L 66.5 368 L 66.5 367 Z " /><path fill="rgb(50,50,50)" stroke="rgb(50,50,50)" stroke-width="1" opacity="0.6352941176470588" d="M 481.5 369 L 480.5 371 L 479 370.5 L 481.5 369 Z " /><path fill="rgb(50,50,50)" stroke="rgb(50,50,50)" stroke-width="1" opacity="0.6352941176470588" d="M 477.5 371 L 476.5 373 L 473.5 374 L 473.5 373 L 477.5 371 Z " /><path fill="rgb(50,50,50)" stroke="rgb(50,50,50)" stroke-width="1" opacity="0.6352941176470588" d="M 470.5 374 L 472 374.5 L 468.5 376 L 468.5 375 L 470.5 374 Z " /><path fill="rgb(50,50,50)" stroke="rgb(50,50,50)" stroke-width="1" opacity="0.6352941176470588" d="M 465.5 376 L 467 376.5 L 456.5 380 L 456.5 379 L 465.5 376 Z " /><path fill="rgb(50,50,50)" stroke="rgb(50,50,50)" stroke-width="1" opacity="0.6352941176470588" d="M 452.5 380 L 455 380.5 L 452.5 381 L 452.5 380 Z " /><path fill="rgb(50,50,50)" stroke="rgb(50,50,50)" stroke-width="1" opacity="0.6352941176470588" d="M 448.5 381 L 451 381.5 L 448.5 382 L 448.5 381 Z " /><path fill="rgb(50,50,50)" stroke="rgb(50,50,50)" stroke-width="1" opacity="0.6352941176470588" d="M 61.5 382 L 69 383.5 L 64.5 384 L 61.5 383 L 61.5 382 Z " /><path fill="rgb(50,50,50)" stroke="rgb(50,50,50)" stroke-width="1" opacity="0.6352941176470588" d="M 442.5 382 L 447 382.5 L 442.5 383 L 442.5 382 Z " /><path fill="rgb(50,50,50)" stroke="rgb(50,50,50)" stroke-width="1" opacity="0.6352941176470588" d="M 433.5 383 L 441 383.5 L 433.5 384 L 433.5 383 Z " /><path fill="rgb(50,50,50)" stroke="rgb(50,50,50)" stroke-width="1" opacity="0.6352941176470588" d="M 176.5 385 L 177 389.5 L 176 389.5 L 176.5 385 Z " /><path fill="rgb(50,50,50)" stroke="rgb(50,50,50)" stroke-width="1" opacity="0.6352941176470588" d="M 201.5 385 L 202 388.5 L 201 388.5 L 201.5 385 Z " /><path fill="rgb(50,50,50)" stroke="rgb(50,50,50)" stroke-width="1" opacity="0.6352941176470588" d="M 202.5 390 L 203 393.5 L 202 393.5 L 202.5 390 Z " /><path fill="rgb(50,50,50)" stroke="rgb(50,50,50)" stroke-width="1" opacity="0.6352941176470588" d="M 203.5 395 L 204 397.5 L 203 397.5 L 203.5 395 Z " /><path fill="rgb(50,50,50)" stroke="rgb(50,50,50)" stroke-width="1" opacity="0.6352941176470588" d="M 179.5 397 L 182 401.5 L 180 400.5 L 179.5 397 Z " /><path fill="rgb(50,50,50)" stroke="rgb(50,50,50)" stroke-width="1" opacity="0.6352941176470588" d="M 204.5 399 L 205 401.5 L 204 401.5 L 204.5 399 Z " /><path fill="rgb(50,50,50)" stroke="rgb(50,50,50)" stroke-width="1" opacity="0.6352941176470588" d="M 182.5 403 L 183.5 405 L 182.5 403 Z " /><path fill="rgb(50,50,50)" stroke="rgb(50,50,50)" stroke-width="1" opacity="0.6352941176470588" d="M 184.5 406 Q 189.4 413.6 200 415.5 L 196.5 416 Q 187.8 412.9 184.5 406 Z " /><path fill="rgb(50,50,50)" stroke="rgb(50,50,50)" stroke-width="1" opacity="0.6352941176470588" d="M 207.5 413 L 208 414.5 L 204.5 416 L 204.5 415 Q 208 416 207.5 413 Z " /><path fill="rgb(51,51,51)" stroke="rgb(51,51,51)" stroke-width="1" opacity="0.996078431372549" d="M 200.5 112 L 204 112.5 L 200.5 113 L 200.5 112 Z " /><path fill="rgb(51,51,51)" stroke="rgb(51,51,51)" stroke-width="1" opacity="0.996078431372549" d="M 190.5 116 L 184.5 123 L 190.5 116 Z " /><path fill="rgb(51,51,51)" stroke="rgb(51,51,51)" stroke-width="1" opacity="0.996078431372549" d="M 69.5 144 L 72 144.5 L 69.5 145 L 69.5 144 Z " /><path fill="rgb(51,51,51)" stroke="rgb(51,51,51)" stroke-width="1" opacity="0.996078431372549" d="M 428.5 144 L 433 144.5 L 428.5 145 L 428.5 144 Z " /><path fill="rgb(51,51,51)" stroke="rgb(51,51,51)" stroke-width="1" opacity="0.996078431372549" d="M 48.5 152 L 47.5 154 L 48.5 152 Z " /><path fill="rgb(51,51,51)" stroke="rgb(51,51,51)" stroke-width="1" opacity="0.996078431372549" d="M 44.5 155 L 43.5 157 L 44.5 155 Z " /><path fill="rgb(51,51,51)" stroke="rgb(51,51,51)" stroke-width="1" opacity="0.996078431372549" d="M 39.5 159 L 38.5 161 L 39.5 159 Z " /><path fill="rgb(51,51,51)" stroke="rgb(51,51,51)" stroke-width="1" opacity="0.996078431372549" d="M 304.5 161 L 305.5 163 L 304.5 161 Z " /><path fill="rgb(51,51,51)" stroke="rgb(51,51,51)" stroke-width="1" opacity="0.996078431372549" d="M 487.5 162 L 488.5 164 L 487.5 162 Z " /><path fill="rgb(51,51,51)" stroke="rgb(51,51,51)" stroke-width="1" opacity="0.996078431372549" d="M 299.5 163 L 300.5 165 L 299.5 163 Z " /><path fill="rgb(51,51,51)" stroke="rgb(51,51,51)" stroke-width="1" opacity="0.996078431372549" d="M 490.5 164 L 492.5 167 L 490.5 164 Z " /><path fill="rgb(51,51,51)" stroke="rgb(51,51,51)" stroke-width="1" opacity="0.996078431372549" d="M 34.5 165 L 33.5 167 L 34.5 165 Z " /><path fill="rgb(51,51,51)" stroke="rgb(51,51,51)" stroke-width="1" opacity="0.996078431372549" d="M 72.5 165 L 71.5 167 L 72.5 165 Z " /><path fill="rgb(51,51,51)" stroke="rgb(51,51,51)" stroke-width="1" opacity="0.996078431372549" d="M 421.5 165 L 420.5 167 L 421.5 165 Z " /><path fill="rgb(51,51,51)" stroke="rgb(51,51,51)" stroke-width="1" opacity="0.996078431372549" d="M 68.5 168 L 67.5 170 L 68.5 168 Z " /><path fill="rgb(51,51,51)" stroke="rgb(51,51,51)" stroke-width="1" opacity="0.996078431372549" d="M 418.5 169 L 417.5 171 L 418.5 169 Z " /><path fill="rgb(51,51,51)" stroke="rgb(51,51,51)" stroke-width="1" opacity="0.996078431372549" d="M 496.5 169 L 498.5 172 L 496.5 169 Z " /><path fill="rgb(51,51,51)" stroke="rgb(51,51,51)" stroke-width="1" opacity="0.996078431372549" d="M 30.5 170 L 29.5 172 L 30.5 170 Z " /><path fill="rgb(51,51,51)" stroke="rgb(51,51,51)" stroke-width="1" opacity="0.996078431372549" d="M 45.5 170 L 44.5 172 L 45.5 170 Z " /><path fill="rgb(51,51,51)" stroke="rgb(51,51,51)" stroke-width="1" opacity="0.996078431372549" d="M 64.5 171 L 62.5 174 L 64.5 171 Z " /><path fill="rgb(51,51,51)" stroke="rgb(51,51,51)" stroke-width="1" opacity="0.996078431372549" d="M 43.5 173 L 42.5 175 L 43.5 173 Z " /><path fill="rgb(51,51,51)" stroke="rgb(51,51,51)" stroke-width="1" opacity="0.996078431372549" d="M 247.5 174 L 250 174.5 L 247.5 175 L 247.5 174 Z " /><path fill="rgb(51,51,51)" stroke="rgb(51,51,51)" stroke-width="1" opacity="0.996078431372549" d="M 262.5 175 L 265 175.5 L 262.5 176 L 262.5 175 Z " /><path fill="rgb(51,51,51)" stroke="rgb(51,51,51)" stroke-width="1" opacity="0.996078431372549" d="M 374.5 175 L 379 175.5 L 374.5 176 L 374.5 175 Z " /><path fill="rgb(51,51,51)" stroke="rgb(51,51,51)" stroke-width="1" opacity="0.996078431372549" d="M 57.5 177 L 48.5 187 L 57.5 177 Z " /><path fill="rgb(51,51,51)" stroke="rgb(51,51,51)" stroke-width="1" opacity="0.996078431372549" d="M 159.5 177 L 158.5 179 L 159.5 177 Z " /><path fill="rgb(51,51,51)" stroke="rgb(51,51,51)" stroke-width="1" opacity="0.996078431372549" d="M 229.5 186 L 230.5 188 L 229.5 186 Z " /><path fill="rgb(51,51,51)" stroke="rgb(51,51,51)" stroke-width="1" opacity="0.996078431372549" d="M 45.5 190 L 42.5 194 L 45.5 190 Z " /><path fill="rgb(51,51,51)" stroke="rgb(51,51,51)" stroke-width="1" opacity="0.996078431372549" d="M 445.5 192 L 449 192.5 L 445.5 193 L 445.5 192 Z " /><path fill="rgb(51,51,51)" stroke="rgb(51,51,51)" stroke-width="1" opacity="0.996078431372549" d="M 416.5 193 L 415.5 195 L 416.5 193 Z " /><path fill="rgb(51,51,51)" stroke="rgb(51,51,51)" stroke-width="1" opacity="0.996078431372549" d="M 40.5 196 L 39.5 198 L 40.5 196 Z " /><path fill="rgb(51,51,51)" stroke="rgb(51,51,51)" stroke-width="1" opacity="0.996078431372549" d="M 479.5 196 L 482.5 200 L 479.5 196 Z " /><path fill="rgb(51,51,51)" stroke="rgb(51,51,51)" stroke-width="1" opacity="0.996078431372549" d="M 413.5 198 L 414 202.5 L 413 202.5 L 413.5 198 Z " /><path fill="rgb(51,51,51)" stroke="rgb(51,51,51)" stroke-width="1" opacity="0.996078431372549" d="M 15.5 202 L 14.5 204 L 15.5 202 Z " /><path fill="rgb(51,51,51)" stroke="rgb(51,51,51)" stroke-width="1" opacity="0.996078431372549" d="M 414.5 214 L 415 216.5 L 414 216.5 L 414.5 214 Z " /><path fill="rgb(51,51,51)" stroke="rgb(51,51,51)" stroke-width="1" opacity="0.996078431372549" d="M 510.5 224 L 511 226.5 L 510 226.5 L 510.5 224 Z " /><path fill="rgb(51,51,51)" stroke="rgb(51,51,51)" stroke-width="1" opacity="0.996078431372549" d="M 415.5 231 L 416 234.5 L 415 234.5 L 415.5 231 Z " /><path fill="rgb(51,51,51)" stroke="rgb(51,51,51)" stroke-width="1" opacity="0.996078431372549" d="M 144.5 237 L 145 239.5 L 144 239.5 L 144.5 237 Z " /><path fill="rgb(51,51,51)" stroke="rgb(51,51,51)" stroke-width="1" opacity="0.996078431372549" d="M 511.5 247 L 512 280.5 L 511 280.5 L 511.5 247 Z " /><path fill="rgb(51,51,51)" stroke="rgb(51,51,51)" stroke-width="1" opacity="0.996078431372549" d="M 224.5 254 L 225 273.5 L 224 273.5 L 224.5 254 Z " /><path fill="rgb(51,51,51)" stroke="rgb(51,51,51)" stroke-width="1" opacity="0.996078431372549" d="M 0.5 256 L 1 271.5 L 0 271.5 L 0.5 256 Z " /><path fill="rgb(51,51,51)" stroke="rgb(51,51,51)" stroke-width="1" opacity="0.996078431372549" d="M 495.5 277 L 496 279.5 L 495 279.5 L 495.5 277 Z " /><path fill="rgb(51,51,51)" stroke="rgb(51,51,51)" stroke-width="1" opacity="0.996078431372549" d="M 144.5 288 L 145 290.5 L 144 290.5 L 144.5 288 Z " /><path fill="rgb(51,51,51)" stroke="rgb(51,51,51)" stroke-width="1" opacity="0.996078431372549" d="M 415.5 294 L 416 297.5 L 415 297.5 L 415.5 294 Z " /><path fill="rgb(51,51,51)" stroke="rgb(51,51,51)" stroke-width="1" opacity="0.996078431372549" d="M 510.5 301 L 511 303.5 L 510 303.5 L 510.5 301 Z " /><path fill="rgb(51,51,51)" stroke="rgb(51,51,51)" stroke-width="1" opacity="0.996078431372549" d="M 414.5 312 L 415 314.5 L 414 314.5 L 414.5 312 Z " /><path fill="rgb(51,51,51)" stroke="rgb(51,51,51)" stroke-width="1" opacity="0.996078431372549" d="M 14.5 324 L 15.5 326 L 14.5 324 Z " /><path fill="rgb(51,51,51)" stroke="rgb(51,51,51)" stroke-width="1" opacity="0.996078431372549" d="M 413.5 325 L 414 329.5 L 413 329.5 L 413.5 325 Z " /><path fill="rgb(51,51,51)" stroke="rgb(51,51,51)" stroke-width="1" opacity="0.996078431372549" d="M 482.5 328 L 479.5 332 L 482.5 328 Z " /><path fill="rgb(51,51,51)" stroke="rgb(51,51,51)" stroke-width="1" opacity="0.996078431372549" d="M 39.5 330 L 40.5 332 L 39.5 330 Z " /><path fill="rgb(51,51,51)" stroke="rgb(51,51,51)" stroke-width="1" opacity="0.996078431372549" d="M 415.5 333 L 416.5 335 L 415.5 333 Z " /><path fill="rgb(51,51,51)" stroke="rgb(51,51,51)" stroke-width="1" opacity="0.996078431372549" d="M 42.5 334 L 45.5 338 L 42.5 334 Z " /><path fill="rgb(51,51,51)" stroke="rgb(51,51,51)" stroke-width="1" opacity="0.996078431372549" d="M 445.5 335 L 449 335.5 L 445.5 336 L 445.5 335 Z " /><path fill="rgb(51,51,51)" stroke="rgb(51,51,51)" stroke-width="1" opacity="0.996078431372549" d="M 230.5 340 L 229.5 342 L 230.5 340 Z " /><path fill="rgb(51,51,51)" stroke="rgb(51,51,51)" stroke-width="1" opacity="0.996078431372549" d="M 48.5 341 L 56.5 350 L 48.5 341 Z " /><path fill="rgb(51,51,51)" stroke="rgb(51,51,51)" stroke-width="1" opacity="0.996078431372549" d="M 158.5 349 L 159.5 351 L 158.5 349 Z " /><path fill="rgb(51,51,51)" stroke="rgb(51,51,51)" stroke-width="1" opacity="0.996078431372549" d="M 262.5 352 L 265 352.5 L 262.5 353 L 262.5 352 Z " /><path fill="rgb(51,51,51)" stroke="rgb(51,51,51)" stroke-width="1" opacity="0.996078431372549" d="M 374.5 352 L 379 352.5 L 374.5 353 L 374.5 352 Z " /><path fill="rgb(51,51,51)" stroke="rgb(51,51,51)" stroke-width="1" opacity="0.996078431372549" d="M 42.5 353 L 43.5 355 L 42.5 353 Z " /><path fill="rgb(51,51,51)" stroke="rgb(51,51,51)" stroke-width="1" opacity="0.996078431372549" d="M 247.5 353 L 250 353.5 L 247.5 354 L 247.5 353 Z " /><path fill="rgb(51,51,51)" stroke="rgb(51,51,51)" stroke-width="1" opacity="0.996078431372549" d="M 62.5 354 L 64.5 357 L 62.5 354 Z " /><path fill="rgb(51,51,51)" stroke="rgb(51,51,51)" stroke-width="1" opacity="0.996078431372549" d="M 29.5 356 L 30.5 358 L 29.5 356 Z " /><path fill="rgb(51,51,51)" stroke="rgb(51,51,51)" stroke-width="1" opacity="0.996078431372549" d="M 44.5 356 L 46.5 359 L 44.5 356 Z " /><path fill="rgb(51,51,51)" stroke="rgb(51,51,51)" stroke-width="1" opacity="0.996078431372549" d="M 498.5 356 L 496.5 359 L 498.5 356 Z " /><path fill="rgb(51,51,51)" stroke="rgb(51,51,51)" stroke-width="1" opacity="0.996078431372549" d="M 417.5 357 L 418.5 359 L 417.5 357 Z " /><path fill="rgb(51,51,51)" stroke="rgb(51,51,51)" stroke-width="1" opacity="0.996078431372549" d="M 67.5 358 L 68.5 360 L 67.5 358 Z " /><path fill="rgb(51,51,51)" stroke="rgb(51,51,51)" stroke-width="1" opacity="0.996078431372549" d="M 33.5 361 L 34.5 363 L 33.5 361 Z " /><path fill="rgb(51,51,51)" stroke="rgb(51,51,51)" stroke-width="1" opacity="0.996078431372549" d="M 71.5 361 L 72.5 363 L 71.5 361 Z " /><path fill="rgb(51,51,51)" stroke="rgb(51,51,51)" stroke-width="1" opacity="0.996078431372549" d="M 420.5 361 L 421.5 363 L 420.5 361 Z " /><path fill="rgb(51,51,51)" stroke="rgb(51,51,51)" stroke-width="1" opacity="0.996078431372549" d="M 492.5 361 L 491.5 363 L 492.5 361 Z " /><path fill="rgb(51,51,51)" stroke="rgb(51,51,51)" stroke-width="1" opacity="0.996078431372549" d="M 300.5 363 L 299.5 365 L 300.5 363 Z " /><path fill="rgb(51,51,51)" stroke="rgb(51,51,51)" stroke-width="1" opacity="0.996078431372549" d="M 488.5 364 L 487.5 366 L 488.5 364 Z " /><path fill="rgb(51,51,51)" stroke="rgb(51,51,51)" stroke-width="1" opacity="0.996078431372549" d="M 305.5 365 L 304.5 367 L 305.5 365 Z " /><path fill="rgb(51,51,51)" stroke="rgb(51,51,51)" stroke-width="1" opacity="0.996078431372549" d="M 38.5 367 L 39.5 369 L 38.5 367 Z " /><path fill="rgb(51,51,51)" stroke="rgb(51,51,51)" stroke-width="1" opacity="0.996078431372549" d="M 43.5 371 L 44.5 373 L 43.5 371 Z " /><path fill="rgb(51,51,51)" stroke="rgb(51,51,51)" stroke-width="1" opacity="0.996078431372549" d="M 47.5 374 L 48.5 376 L 47.5 374 Z " /><path fill="rgb(51,51,51)" stroke="rgb(51,51,51)" stroke-width="1" opacity="0.996078431372549" d="M 69.5 383 L 72 383.5 L 69.5 384 L 69.5 383 Z " /><path fill="rgb(51,51,51)" stroke="rgb(51,51,51)" stroke-width="1" opacity="0.996078431372549" d="M 428.5 383 L 433 383.5 L 428.5 384 L 428.5 383 Z " /><path fill="rgb(51,51,51)" stroke="rgb(51,51,51)" stroke-width="1" opacity="0.996078431372549" d="M 184.5 405 L 190.5 412 L 184.5 405 Z " /><path fill="rgb(51,51,51)" stroke="rgb(51,51,51)" stroke-width="1" opacity="0.996078431372549" d="M 200.5 415 L 204 415.5 L 200.5 416 L 200.5 415 Z " /><path fill="rgb(51,51,51)" stroke="rgb(51,51,51)" stroke-width="1" opacity="1" d="M 197.5 113 L 205.5 113 L 207 114.5 L 207 118.5 L 204 125.5 L 200 143.5 L 427.5 144 L 428.5 145 L 440.5 145 L 454.5 148 L 471.5 154 Q 489.3 161.2 501 174.5 L 504 180.5 L 507 194.5 L 507 199.5 L 509 206.5 L 509 214.5 L 510 215.5 L 510 226.5 L 511 227.5 L 511 300.5 L 510 301.5 L 509 321.5 L 504 347.5 Q 500.8 356.3 493.5 361 Q 472.5 377.5 440.5 383 L 428.5 383 L 427.5 384 L 200 384.5 L 204 402.5 L 207 409.5 L 207 413.5 L 205.5 415 L 197.5 415 Q 188.1 411.4 183 403.5 Q 177.2 395.9 177 384 L 72.5 384 Q 71 381.5 65.5 383 Q 45.9 377.6 35 363.5 Q 21.9 349.2 18 327 Q 15.3 328.1 16 325.5 L 10 316.5 L 2 288.5 Q 3.5 283 1 281.5 L 1 246.5 L 7 219.5 L 16 201 Q 18.7 202.1 18 199.5 Q 21.3 184.8 28 173.5 L 42.5 157 L 56.5 148 L 72.5 144 L 177 144 Q 178.5 124.6 191.5 116 L 197.5 113 Z M 66 160 Q 56 162 50 166 Q 37 178 32 199 L 33 208 L 46 190 Q 61 173 80 161 L 66 160 Z M 201 160 Q 203 165 209 167 L 231 173 L 247 174 L 248 175 L 262 175 L 263 176 L 304 176 L 304 171 L 301 165 L 297 160 L 201 160 Z M 304 160 L 310 169 L 311 176 L 379 176 L 380 175 L 394 175 L 395 174 L 416 173 L 424 162 L 424 160 L 304 160 Z M 162 176 L 160 177 L 157 181 L 150 202 L 145 228 L 145 237 L 144 238 L 144 291 L 145 292 L 145 301 L 150 327 L 158 350 L 162 352 L 179 351 L 218 344 L 224 344 L 230 342 L 232 339 L 232 328 L 227 303 L 226 288 L 225 287 L 225 242 L 226 241 L 227 226 L 231 207 L 231 202 L 232 201 L 232 190 L 231 188 L 224 184 L 218 184 L 172 176 L 162 176 Z M 419 192 L 417 193 L 413 199 L 414 217 L 415 218 L 415 235 L 416 236 L 416 294 L 415 295 L 414 325 L 413 326 Q 412 331 415 334 L 419 336 L 473 335 L 480 332 L 485 326 L 490 311 L 496 280 L 496 249 Q 493 247 495 241 L 490 218 L 483 200 Q 479 195 473 193 L 419 192 Z M 33 320 L 33 334 Q 37 347 44 357 L 53 364 L 66 368 L 80 368 L 62 354 Q 45 339 33 320 Z M 263 352 L 262 353 L 238 354 L 221 357 L 207 362 L 200 368 L 297 368 Q 302 364 304 358 Q 305 352 304 352 L 263 352 Z M 311 352 Q 311 362 304 367 L 305 368 L 424 368 L 419 359 L 416 355 L 395 354 L 394 353 L 380 353 L 379 352 L 311 352 Z " /></svg>