<svg width="512" height="512" version="1.1" xmlns="http://www.w3.org/2000/svg" desc="Created with imagetracer.js version 1.2.6" ><path fill="rgb(0,0,0)" stroke="rgb(0,0,0)" stroke-width="1" opacity="0" d="M 0 0 L 512 0 L 512 512 L 0 512 L 0 0 Z M 248 13 Q 235 15 227 22 Q 211 33 206 56 L 206 72 L 207 77 L 216 95 Q 227 110 249 114 L 264 114 L 269 113 L 286 105 Q 301 94 306 72 L 306 56 L 305 51 L 297 34 Q 289 22 275 16 L 265 13 L 248 13 Z M 219 126 L 203 131 L 192 138 Q 179 147 173 163 L 137 262 L 137 272 L 142 281 L 154 287 Q 165 288 171 283 Q 176 279 178 273 L 200 213 L 200 479 L 204 489 Q 209 496 219 499 Q 231 501 238 496 Q 247 491 249 479 L 249 317 L 255 312 L 260 313 L 263 318 L 263 479 L 267 489 Q 272 496 282 499 Q 294 501 301 496 Q 309 490 312 479 L 313 213 L 334 273 L 338 280 Q 342 285 350 287 Q 362 289 368 283 Q 373 279 375 271 L 375 262 L 372 253 L 340 166 L 331 149 Q 318 131 293 126 L 219 126 Z " /><path fill="rgb(0,0,0)" stroke="rgb(0,0,0)" stroke-width="1" opacity="0.803921568627451" d="M 247.5 13 L 251 13.5 L 247.5 14 L 247.5 13 Z " /><path fill="rgb(0,0,0)" stroke="rgb(0,0,0)" stroke-width="1" opacity="0.803921568627451" d="M 261.5 13 L 265 13.5 L 261.5 14 L 261.5 13 Z " /><path fill="rgb(0,0,0)" stroke="rgb(0,0,0)" stroke-width="1" opacity="0.803921568627451" d="M 229.5 20 L 228.5 22 L 229.5 20 Z " /><path fill="rgb(0,0,0)" stroke="rgb(0,0,0)" stroke-width="1" opacity="0.803921568627451" d="M 282.5 20 L 283.5 22 L 282.5 20 Z " /><path fill="rgb(0,0,0)" stroke="rgb(0,0,0)" stroke-width="1" opacity="0.803921568627451" d="M 226.5 22 L 224.5 25 L 226.5 22 Z " /><path fill="rgb(0,0,0)" stroke="rgb(0,0,0)" stroke-width="1" opacity="0.803921568627451" d="M 285.5 22 L 287.5 25 L 285.5 22 Z " /><path fill="rgb(0,0,0)" stroke="rgb(0,0,0)" stroke-width="1" opacity="0.803921568627451" d="M 217.5 31 L 215.5 34 L 217.5 31 Z " /><path fill="rgb(0,0,0)" stroke="rgb(0,0,0)" stroke-width="1" opacity="0.803921568627451" d="M 294.5 31 L 296.5 34 L 294.5 31 Z " /><path fill="rgb(0,0,0)" stroke="rgb(0,0,0)" stroke-width="1" opacity="0.803921568627451" d="M 214.5 35 L 213.5 37 L 214.5 35 Z " /><path fill="rgb(0,0,0)" stroke="rgb(0,0,0)" stroke-width="1" opacity="0.803921568627451" d="M 297.5 35 L 298.5 37 L 297.5 35 Z " /><path fill="rgb(0,0,0)" stroke="rgb(0,0,0)" stroke-width="1" opacity="0.803921568627451" d="M 206.5 55 L 207 58.5 L 206 58.5 L 206.5 55 Z " /><path fill="rgb(0,0,0)" stroke="rgb(0,0,0)" stroke-width="1" opacity="0.803921568627451" d="M 305.5 55 L 306 58.5 L 305 58.5 L 305.5 55 Z " /><path fill="rgb(0,0,0)" stroke="rgb(0,0,0)" stroke-width="1" opacity="0.803921568627451" d="M 206.5 68 L 207 71.5 L 206 71.5 L 206.5 68 Z " /><path fill="rgb(0,0,0)" stroke="rgb(0,0,0)" stroke-width="1" opacity="0.803921568627451" d="M 305.5 68 L 306 71.5 L 305 71.5 L 305.5 68 Z " /><path fill="rgb(0,0,0)" stroke="rgb(0,0,0)" stroke-width="1" opacity="0.803921568627451" d="M 207.5 74 L 208 76.5 L 207 76.5 L 207.5 74 Z " /><path fill="rgb(0,0,0)" stroke="rgb(0,0,0)" stroke-width="1" opacity="0.803921568627451" d="M 216.5 94 L 218.5 97 L 216.5 94 Z " /><path fill="rgb(0,0,0)" stroke="rgb(0,0,0)" stroke-width="1" opacity="0.803921568627451" d="M 295.5 94 L 293.5 97 L 295.5 94 Z " /><path fill="rgb(0,0,0)" stroke="rgb(0,0,0)" stroke-width="1" opacity="0.803921568627451" d="M 223.5 101 L 225.5 104 L 223.5 101 Z " /><path fill="rgb(0,0,0)" stroke="rgb(0,0,0)" stroke-width="1" opacity="0.803921568627451" d="M 288.5 101 L 285.5 105 L 288.5 101 Z " /><path fill="rgb(0,0,0)" stroke="rgb(0,0,0)" stroke-width="1" opacity="0.803921568627451" d="M 228.5 105 L 229.5 107 L 228.5 105 Z " /><path fill="rgb(0,0,0)" stroke="rgb(0,0,0)" stroke-width="1" opacity="0.803921568627451" d="M 283.5 105 L 282.5 107 L 283.5 105 Z " /><path fill="rgb(0,0,0)" stroke="rgb(0,0,0)" stroke-width="1" opacity="0.803921568627451" d="M 248.5 113 L 252 113.5 L 248.5 114 L 248.5 113 Z " /><path fill="rgb(0,0,0)" stroke="rgb(0,0,0)" stroke-width="1" opacity="0.803921568627451" d="M 260.5 113 L 264 113.5 L 260.5 114 L 260.5 113 Z " /><path fill="rgb(0,0,0)" stroke="rgb(0,0,0)" stroke-width="1" opacity="0.803921568627451" d="M 218.5 126 L 223 126.5 L 218.5 127 L 218.5 126 Z " /><path fill="rgb(0,0,0)" stroke="rgb(0,0,0)" stroke-width="1" opacity="0.803921568627451" d="M 289.5 126 L 293 126.5 L 289.5 127 L 289.5 126 Z " /><path fill="rgb(0,0,0)" stroke="rgb(0,0,0)" stroke-width="1" opacity="0.803921568627451" d="M 195.5 135 L 194.5 137 L 195.5 135 Z " /><path fill="rgb(0,0,0)" stroke="rgb(0,0,0)" stroke-width="1" opacity="0.803921568627451" d="M 191.5 138 L 188.5 142 L 191.5 138 Z " /><path fill="rgb(0,0,0)" stroke="rgb(0,0,0)" stroke-width="1" opacity="0.803921568627451" d="M 320.5 138 L 323.5 142 L 320.5 138 Z " /><path fill="rgb(0,0,0)" stroke="rgb(0,0,0)" stroke-width="1" opacity="0.803921568627451" d="M 325.5 143 L 330.5 149 L 325.5 143 Z " /><path fill="rgb(0,0,0)" stroke="rgb(0,0,0)" stroke-width="1" opacity="0.803921568627451" d="M 184.5 145 L 181.5 149 L 184.5 145 Z " /><path fill="rgb(0,0,0)" stroke="rgb(0,0,0)" stroke-width="1" opacity="0.803921568627451" d="M 180.5 150 L 179.5 152 L 180.5 150 Z " /><path fill="rgb(0,0,0)" stroke="rgb(0,0,0)" stroke-width="1" opacity="0.803921568627451" d="M 331.5 150 L 332.5 152 L 331.5 150 Z " /><path fill="rgb(0,0,0)" stroke="rgb(0,0,0)" stroke-width="1" opacity="0.803921568627451" d="M 178.5 153 L 177.5 155 L 178.5 153 Z " /><path fill="rgb(0,0,0)" stroke="rgb(0,0,0)" stroke-width="1" opacity="0.803921568627451" d="M 333.5 153 L 334.5 155 L 333.5 153 Z " /><path fill="rgb(0,0,0)" stroke="rgb(0,0,0)" stroke-width="1" opacity="0.803921568627451" d="M 199 211 L 201 211.5 L 201 478.5 L 200 478.5 L 200 213.5 L 199 211 Z " /><path fill="rgb(0,0,0)" stroke="rgb(0,0,0)" stroke-width="1" opacity="0.803921568627451" d="M 311 211 Q 313.7 209.9 313 212.5 L 312 213.5 L 311.5 479 L 311 211 Z " /><path fill="rgb(0,0,0)" stroke="rgb(0,0,0)" stroke-width="1" opacity="0.803921568627451" d="M 137.5 261 L 138 263.5 L 137 263.5 L 137.5 261 Z " /><path fill="rgb(0,0,0)" stroke="rgb(0,0,0)" stroke-width="1" opacity="0.803921568627451" d="M 137.5 269 L 138 271.5 L 137 271.5 L 137.5 269 Z " /><path fill="rgb(0,0,0)" stroke="rgb(0,0,0)" stroke-width="1" opacity="0.803921568627451" d="M 372.5 275 L 373 276.5 L 371 277.5 L 372.5 275 Z " /><path fill="rgb(0,0,0)" stroke="rgb(0,0,0)" stroke-width="1" opacity="0.803921568627451" d="M 174.5 278 L 170.5 283 L 174.5 278 Z " /><path fill="rgb(0,0,0)" stroke="rgb(0,0,0)" stroke-width="1" opacity="0.803921568627451" d="M 338.5 279 L 341.5 283 L 338.5 279 Z " /><path fill="rgb(0,0,0)" stroke="rgb(0,0,0)" stroke-width="1" opacity="0.803921568627451" d="M 370.5 279 L 367.5 283 L 370.5 279 Z " /><path fill="rgb(0,0,0)" stroke="rgb(0,0,0)" stroke-width="1" opacity="0.803921568627451" d="M 142.5 280 L 143.5 282 L 142.5 280 Z " /><path fill="rgb(0,0,0)" stroke="rgb(0,0,0)" stroke-width="1" opacity="0.803921568627451" d="M 343.5 283 L 344.5 285 L 343.5 283 Z " /><path fill="rgb(0,0,0)" stroke="rgb(0,0,0)" stroke-width="1" opacity="0.803921568627451" d="M 153.5 286 L 157 286.5 L 153.5 287 L 153.5 286 Z " /><path fill="rgb(0,0,0)" stroke="rgb(0,0,0)" stroke-width="1" opacity="0.803921568627451" d="M 159.5 286 L 162 286.5 L 159.5 287 L 159.5 286 Z " /><path fill="rgb(0,0,0)" stroke="rgb(0,0,0)" stroke-width="1" opacity="0.803921568627451" d="M 357.5 286 L 360 286.5 L 357.5 287 L 357.5 286 Z " /><path fill="rgb(0,0,0)" stroke="rgb(0,0,0)" stroke-width="1" opacity="0.803921568627451" d="M 251.5 313 L 249.5 316 L 251.5 313 Z " /><path fill="rgb(0,0,0)" stroke="rgb(0,0,0)" stroke-width="1" opacity="0.803921568627451" d="M 260.5 313 L 261.5 315 L 260.5 313 Z " /><path fill="rgb(0,0,0)" stroke="rgb(0,0,0)" stroke-width="1" opacity="0.803921568627451" d="M 248.5 318 L 249 478.5 L 248 478.5 L 248.5 318 Z " /><path fill="rgb(0,0,0)" stroke="rgb(0,0,0)" stroke-width="1" opacity="0.803921568627451" d="M 263.5 319 L 264 478.5 L 263 478.5 L 263.5 319 Z " /><path fill="rgb(0,0,0)" stroke="rgb(0,0,0)" stroke-width="1" opacity="0.803921568627451" d="M 246.5 484 L 247 485.5 L 245 486.5 L 246.5 484 Z " /><path fill="rgb(0,0,0)" stroke="rgb(0,0,0)" stroke-width="1" opacity="0.803921568627451" d="M 204.5 488 L 206.5 491 L 204.5 488 Z " /><path fill="rgb(0,0,0)" stroke="rgb(0,0,0)" stroke-width="1" opacity="0.803921568627451" d="M 267.5 488 L 269.5 491 L 267.5 488 Z " /><path fill="rgb(0,0,0)" stroke="rgb(0,0,0)" stroke-width="1" opacity="0.803921568627451" d="M 307.5 488 L 306.5 490 L 307.5 488 Z " /><path fill="rgb(0,0,0)" stroke="rgb(0,0,0)" stroke-width="1" opacity="0.803921568627451" d="M 209.5 493 L 210.5 495 L 209.5 493 Z " /><path fill="rgb(0,0,0)" stroke="rgb(0,0,0)" stroke-width="1" opacity="0.803921568627451" d="M 272.5 493 L 274.5 496 L 272.5 493 Z " /><path fill="rgb(0,0,0)" stroke="rgb(0,0,0)" stroke-width="1" opacity="0.803921568627451" d="M 238.5 494 L 237.5 496 L 238.5 494 Z " /><path fill="rgb(0,0,0)" stroke="rgb(0,0,0)" stroke-width="1" opacity="0.803921568627451" d="M 301.5 494 L 300.5 496 L 301.5 494 Z " /><path fill="rgb(0,0,0)" stroke="rgb(0,0,0)" stroke-width="1" opacity="0.803921568627451" d="M 218.5 498 L 221 498.5 L 218.5 499 L 218.5 498 Z " /><path fill="rgb(0,0,0)" stroke="rgb(0,0,0)" stroke-width="1" opacity="0.803921568627451" d="M 228.5 498 L 231 498.5 L 228.5 499 L 228.5 498 Z " /><path fill="rgb(0,0,0)" stroke="rgb(0,0,0)" stroke-width="1" opacity="0.803921568627451" d="M 281.5 498 L 284 498.5 L 281.5 499 L 281.5 498 Z " /><path fill="rgb(0,0,0)" stroke="rgb(0,0,0)" stroke-width="1" opacity="0.803921568627451" d="M 291.5 498 L 294 498.5 L 291.5 499 L 291.5 498 Z " /><path fill="rgb(0,0,0)" stroke="rgb(0,0,0)" stroke-width="1" opacity="1" d="M 251.5 13 L 260.5 13 L 273.5 16 Q 285.8 21.2 294 30.5 Q 301.7 39.3 305 52.5 L 306 67.5 L 302 83.5 Q 297.4 93.9 289.5 101 Q 277.1 113.6 252.5 114 L 236.5 110 Q 226.1 105.4 219 97.5 Q 206.2 84.8 206 59.5 L 209 45.5 L 213 37.5 L 223.5 25 L 238.5 16 L 251.5 13 Z " /><path fill="rgb(0,0,0)" stroke="rgb(0,0,0)" stroke-width="1" opacity="1" d="M 223.5 126 L 288.5 126 Q 290 128.5 295.5 127 Q 306.9 129.6 315.5 135 L 325 142 L 338 161.5 L 373 256.5 L 375 263.5 L 375 268.5 Q 372.9 278.9 365.5 284 L 356.5 287 L 351.5 287 Q 341.6 284.9 337 277.5 L 313 211 L 311 211.5 L 311 480.5 Q 308.5 489 302.5 494 Q 296.3 499.3 284.5 499 Q 275.1 497.4 270 491.5 L 264 480.5 L 264 319.5 L 260.5 313 L 253.5 312 L 249 315.5 L 248 318.5 L 248 480.5 Q 245.9 489.4 239.5 494 Q 233.3 499.3 221.5 499 Q 212 497.4 207 491.5 L 201 480.5 L 201 211 Q 198 209.8 199 213.5 L 177 273.5 L 168.5 284 L 157.5 287 Q 156.2 284.7 151.5 286 L 145.5 283 L 141 278.5 Q 137 273.5 137 264.5 L 174 161.5 Q 179.2 150.2 187.5 142 L 201.5 132 L 212.5 128 L 223.5 126 Z " /></svg>